<svg xmlns="http://www.w3.org/2000/svg" width="20" height="20" viewBox="0 0 20 20" fill="none">
<g clip-path="url(#clip0_18_12121)">
<path fill-rule="evenodd" clip-rule="evenodd" d="M10.2208 20C4.67784 20 0.098877 15.4762 0.098877 10C0.098877 4.52381 4.67006 0 10.213 0C15.756 0 20.3427 4.52381 20.3427 10C20.3427 15.4762 15.7637 20 10.2208 20ZM8.97695 15.0231C9.2646 15.0231 9.51337 14.8925 9.69995 14.6083L14.9242 6.52077C15.0408 6.3518 15.1418 6.14443 15.1418 5.96009C15.1418 5.55303 14.7765 5.29957 14.3955 5.29957C14.1701 5.29957 13.9446 5.43014 13.7736 5.69128L8.93808 13.2873L6.36485 10.0999C6.16272 9.84642 5.95282 9.75426 5.70405 9.75426C5.32312 9.75426 5.00438 10.0538 5.00438 10.4609C5.00438 10.6529 5.08212 10.8602 5.21428 11.0215L8.21509 14.616C8.45609 14.9079 8.68931 15.0231 8.97695 15.0231Z" fill="#0A7AFF"/>
</g>
<defs>
<clipPath id="clip0_18_12121">
<rect width="20" height="20" fill="white" transform="translate(0.098877)"/>
</clipPath>
</defs>
</svg>